<?xml version="1.0" standalone="no"?>
<!DOCTYPE svg PUBLIC "-//W3C//DTD SVG 20010904//EN"
 "http://www.w3.org/TR/2001/REC-SVG-20010904/DTD/svg10.dtd">
<svg version="1.0" xmlns="http://www.w3.org/2000/svg"
 width="135.000000pt" height="145.000000pt" viewBox="0 0 135.000000 145.000000"
 preserveAspectRatio="xMidYMid meet">
<metadata>
Created by potrace 1.16, written by Peter Selinger 2001-2019
</metadata>
<g transform="translate(0.000000,145.000000) scale(0.100000,-0.100000)"
fill="#000000" stroke="none">
<path d="M0 725 l0 -725 675 0 675 0 0 725 0 725 -675 0 -675 0 0 -725z m796
651 c208 -45 382 -199 464 -414 11 -29 20 -57 20 -62 0 -6 -25 -10 -55 -10
-40 0 -55 4 -55 14 0 36 -77 164 -134 220 -211 211 -535 209 -746 -4 -76 -76
-111 -136 -139 -240 -48 -171 -4 -356 115 -489 l47 -53 -40 -40 -40 -40 -52
62 c-134 161 -187 380 -138 570 62 239 258 437 481 485 79 17 195 18 272 1z
m-105 -352 c61 -58 60 -146 -1 -198 -44 -37 -89 -42 -138 -17 -127 65 -74 262
66 248 30 -3 53 -13 73 -33z m-398 -211 c110 -78 237 -120 331 -107 27 3 86
19 132 34 97 33 179 45 214 32 24 -9 23 -9 -15 -22 -119 -38 -329 -153 -458
-249 -37 -28 -70 -51 -72 -51 -3 0 -5 18 -5 41 0 53 -18 88 -86 174 -46 57
-104 158 -104 180 0 11 15 3 63 -32z m1007 -56 c0 -19 -14 -29 -79 -60 -244
-114 -453 -330 -539 -559 l-20 -53 -54 2 c-29 1 -72 8 -96 15 l-43 13 36 59
c26 43 33 62 25 70 -12 12 -19 4 -73 -73 -25 -36 -31 -39 -52 -31 -31 12 -105
61 -105 69 0 17 181 198 254 255 201 155 390 247 601 291 141 30 145 30 145 2z
m-25 -208 c-58 -229 -256 -418 -478 -458 -47 -8 -48 -8 -43 13 18 73 34 92 88
109 138 43 266 172 318 321 17 47 22 52 72 72 29 11 54 17 56 13 2 -5 -4 -36
-13 -70z"/>
</g>
</svg>
